<svg xmlns="http://www.w3.org/2000/svg" viewBox="0 0 64 64" id="sold-signboard"><circle cx="29.5" cy="7.5" r="2.5" fill="#f7d44f"></circle><path fill="#f9f9f9" d="M54.93 39.05a4.885 4.885 0 0 1-4.59 5.18l-3.28.2-.65-10.85 3.28-.2a4.91 4.91 0 0 1 5.18 4.59zM31.33 39.94a5.991 5.991 0 1 1-6.34-5.67A6.012 6.012 0 0 1 31.33 39.94z"></path><path fill="#f5aa42" d="M59.29,25.44l1.54,25.52L4.71,54.35,3.17,28.84l10.84-.66,33-2ZM50.34,44.23a4.885,4.885,0,0,0,4.59-5.18l-.06-1.08a4.91,4.91,0,0,0-5.18-4.59l-3.28.2.65,10.85ZM25.71,46.32a6.036,6.036,0,1,0-6.34-5.66A6.012,6.012,0,0,0,25.71,46.32Z"></path><path fill="#700900" d="M11.975 40.1a1.931 1.931 0 0 1-1.4-.489 1.97 1.97 0 0 1 1.164-3.433 1.925 1.925 0 0 1 1.4.489 1.964 1.964 0 0 1 .654 1.354 1 1 0 1 0 2-.12 3.94 3.94 0 1 0-6.548 3.2A3.877 3.877 0 0 0 12.1 42.1a1.908 1.908 0 0 1 1.4.488 1.97 1.97 0 0 1-1.164 3.433 1.92 1.92 0 0 1-1.4-.489 1.963 1.963 0 0 1-.655-1.354 1 1 0 1 0-2 .12A3.95 3.95 0 0 0 9.6 47.024a3.9 3.9 0 0 0 2.612 1c.08 0 .161 0 .242-.007a3.969 3.969 0 0 0 2.375-6.92A3.89 3.89 0 0 0 11.975 40.1zM29.986 35.035a6.956 6.956 0 0 0-9.872.6 7.05 7.05 0 0 0 5.238 11.7c.139 0 .281 0 .422-.013a7.047 7.047 0 0 0 4.212-12.286zm-4.333 10.29a5.047 5.047 0 0 1-4.036-8.373 4.931 4.931 0 0 1 3.43-1.683c.1-.006.2-.009.3-.009a4.93 4.93 0 0 1 3.3 1.266 5.047 5.047 0 0 1-3 8.8zM42.606 43.819l-5.6.338-.609-10.093a1 1 0 0 0-2 .12l.731 12.09 7.6-.459a1 1 0 1 0-.122-2zM55.865 37.914a5.893 5.893 0 0 0-6.239-5.528l-4.279.259.776 12.841 4.279-.259a5.893 5.893 0 0 0 5.528-6.238zm-2.9 4.012a3.868 3.868 0 0 1-2.68 1.3L48 43.369l-.534-8.848 2.283-.139a3.894 3.894 0 0 1 4.122 3.652l.065 1.075A3.87 3.87 0 0 1 52.961 41.926z"></path><path fill="#700900" d="M60.225,24.386l-12.668.765L31.685,10.212a3.491,3.491,0,1,0-3.627.468l-14.7,16.538L2.112,27.9,3.775,55.405l58.113-3.512ZM29.5,6A1.5,1.5,0,1,1,28,7.5,1.5,1.5,0,0,1,29.5,6Zm.563,5.434L44.815,25.317l-28.63,1.73ZM5.65,53.288,4.229,29.773,58.35,26.5l1.421,23.514Z"></path></svg>